<?xml version="1.0" ?><svg enable-background="new 0 0 32 32" version="1.1" viewBox="0 0 32 32" xml:space="preserve" xmlns="http://www.w3.org/2000/svg" xmlns:xlink="http://www.w3.org/1999/xlink"><g id="stiches"><g><g id="Shopping_10_124_"><g><g><g><g><g><path d="M16,2.115C8.332,2.115,2.115,8.332,2.115,16S8.332,29.885,16,29.885S29.885,23.668,29.885,16          S23.668,2.115,16,2.115L16,2.115z" fill="#FFFFFF"/><path d="M16,30.259c-7.863,0-14.26-6.396-14.26-14.26C1.74,8.137,8.137,1.741,16,1.741S30.26,8.137,30.26,16          C30.26,23.863,23.863,30.259,16,30.259z M16,2.491C8.551,2.491,2.49,8.55,2.49,16S8.551,29.509,16,29.509          S29.51,23.449,29.51,16S23.449,2.491,16,2.491z" fill="#CCCCCC"/></g></g></g></g></g></g><g><g><g><g><g><path d="M16,0c-0.002,0-0.005,0-0.007,0c-0.001,0-0.001,0-0.002,0c-0.002,0-0.003,0-0.005,0         c-0.001,0-0.002,0-0.003,0c-0.001,0-0.003,0-0.005,0c-0.001,0-0.001,0-0.002,0c-0.002,0-0.003,0-0.005,0         c-0.001,0-0.002,0-0.003,0c-0.001,0-0.003,0-0.005,0c0,0-0.002,0-0.002,0c-0.002,0-0.004,0-0.006,0c-0.001,0,0,0-0.001,0         c-0.002,0-0.005,0-0.007,0c-0.001,0,0,0,0,0c-0.003,0-0.005,0-0.007,0c-0.001,0-0.002,0-0.003,0c-0.002,0-0.003,0-0.005,0         c-0.001,0-0.002,0-0.002,0c-0.002,0-0.003,0-0.005,0c-0.001,0-0.001,0-0.002,0c-0.002,0-0.003,0-0.005,0c0,0-0.001,0-0.002,0         c-0.002,0-0.004,0-0.006,0c0,0-0.001,0-0.001,0c-0.005,0-0.01,0-0.015,0h-0.001c-0.002,0-0.004,0-0.007,0         c0,0-0.001,0-0.001,0c-0.002,0-0.004,0-0.006,0c-0.001,0-0.001,0-0.002,0c-0.002,0-0.004,0-0.006,0c-0.001,0-0.001,0-0.001,0         c-0.003,0-0.005,0-0.007,0h0c-0.01,0-0.02,0-0.03,0h0c-0.239,0.002-0.476,0.01-0.712,0.023l0,0c-0.002,0-0.004,0-0.007,0         l-0.002,0c-0.002,0-0.003,0-0.005,0c-0.001,0-0.001,0-0.002,0c-0.002,0-0.003,0-0.005,0c-0.001,0-0.002,0-0.002,0         c-0.001,0-0.003,0-0.004,0c-0.001,0-0.002,0-0.003,0c0,0-0.001,0-0.001,0c-0.006,0-0.011,0.001-0.017,0.001c0,0,0,0-0.001,0         c-0.008,0-0.016,0.001-0.024,0.001l0.044,0.749C15.394,0.759,15.696,0.75,16,0.75V0L16,0L16,0z M14.104,0.111         c-0.168,0.02-0.335,0.042-0.501,0.067c0,0,0,0-0.001,0c-0.002,0-0.005,0.001-0.007,0.001h0         c-0.005,0.001-0.01,0.001-0.014,0.002c0,0-0.001,0-0.002,0c-0.002,0-0.003,0.001-0.005,0.001c-0.001,0-0.002,0-0.003,0         c-0.001,0-0.003,0-0.004,0.001c-0.001,0-0.002,0-0.003,0c-0.001,0-0.003,0-0.004,0.001c-0.002,0-0.002,0-0.004,0.001         c-0.001,0-0.001,0-0.001,0c-0.131,0.02-0.262,0.042-0.392,0.065l0.132,0.738c0.296-0.053,0.594-0.097,0.896-0.133         L14.104,0.111L14.104,0.111z M12.235,0.446c-0.136,0.033-0.272,0.068-0.407,0.104l0,0c-0.002,0.001-0.004,0.001-0.006,0.002         l0,0c-0.006,0.002-0.011,0.003-0.017,0.005l0,0c-0.001,0-0.003,0.001-0.005,0.001c0,0-0.001,0-0.002,0.001         c-0.001,0-0.003,0.001-0.004,0.001c-0.001,0-0.002,0-0.003,0.001c-0.001,0-0.003,0.001-0.003,0.001         c-0.001,0-0.002,0.001-0.004,0.001c-0.001,0-0.002,0.001-0.003,0.001c-0.001,0-0.003,0.001-0.004,0.001         c-0.001,0-0.003,0.001-0.004,0.001c-0.001,0-0.003,0.001-0.004,0.001c0,0-0.002,0-0.002,0.001         c-0.002,0-0.003,0.001-0.005,0.001c-0.001,0-0.001,0-0.002,0.001c-0.002,0-0.003,0.001-0.005,0.001c0,0-0.001,0-0.001,0         c-0.003,0.001-0.005,0.001-0.007,0.002l0,0c-0.143,0.039-0.285,0.081-0.427,0.124l0.219,0.717         c0.287-0.088,0.579-0.167,0.873-0.238L12.235,0.446L12.235,0.446z M10.419,1c-0.298,0.111-0.591,0.23-0.88,0.358l0.303,0.686         c0.275-0.122,0.555-0.235,0.838-0.341L10.419,1L10.419,1z M8.682,1.768c-0.078,0.04-0.156,0.081-0.234,0.123l-0.001,0         C8.446,1.892,8.445,1.893,8.443,1.894L8.442,1.894C8.441,1.895,8.439,1.896,8.438,1.896c-0.001,0-0.002,0.001-0.003,0.001         C8.434,1.899,8.431,1.9,8.43,1.901C8.429,1.901,8.427,1.902,8.426,1.903c-0.001,0-0.001,0.001-0.002,0.001         C8.423,1.904,8.421,1.905,8.42,1.906c0,0-0.001,0.001-0.001,0.001C8.416,1.908,8.415,1.909,8.413,1.91l0,0         c-0.19,0.102-0.377,0.208-0.562,0.318l0.383,0.645c0.259-0.154,0.523-0.3,0.792-0.438L8.682,1.768L8.682,1.768z M7.049,2.736         C6.818,2.893,6.592,3.054,6.37,3.222c0,0-0.001,0-0.001,0.001C6.367,3.223,6.366,3.224,6.365,3.225         c0,0-0.001,0.001-0.001,0.001C6.362,3.227,6.361,3.228,6.36,3.229C6.358,3.23,6.356,3.232,6.355,3.233c0,0,0,0,0,0         C6.352,3.235,6.351,3.236,6.349,3.237c0,0-0.001,0.001-0.001,0.001C6.346,3.239,6.345,3.241,6.343,3.242l-0.001,0         C6.321,3.259,6.299,3.275,6.278,3.291l0.456,0.595c0.239-0.183,0.484-0.36,0.735-0.529L7.049,2.736L7.049,2.736z          M5.541,3.891c-0.24,0.207-0.473,0.421-0.7,0.642l0.523,0.537C5.581,4.86,5.803,4.656,6.032,4.459L5.541,3.891L5.541,3.891z          M4.181,5.216C3.967,5.449,3.76,5.69,3.561,5.936l0.583,0.472c0.19-0.235,0.387-0.464,0.591-0.687L4.181,5.216L4.181,5.216z          M2.985,6.691C2.882,6.836,2.78,6.982,2.681,7.13l0,0C2.68,7.132,2.679,7.134,2.677,7.136l0,0.001         C2.676,7.139,2.675,7.141,2.673,7.142l0,0.001C2.67,7.147,2.668,7.151,2.665,7.155L2.664,7.156         C2.663,7.157,2.662,7.159,2.661,7.161c0,0-0.001,0.001-0.001,0.002C2.659,7.164,2.658,7.165,2.658,7.166         c0,0-0.001,0.001-0.001,0.002C2.655,7.17,2.654,7.171,2.653,7.173c0,0,0,0,0,0C2.651,7.176,2.65,7.178,2.649,7.179         C2.648,7.18,2.648,7.181,2.647,7.182C2.647,7.183,2.646,7.184,2.645,7.185C2.644,7.186,2.644,7.187,2.643,7.188         C2.643,7.189,2.642,7.19,2.641,7.191C2.641,7.192,2.64,7.192,2.64,7.193C2.639,7.194,2.638,7.196,2.637,7.197         C2.637,7.198,2.636,7.198,2.636,7.199C2.635,7.201,2.634,7.202,2.633,7.203C2.632,7.205,2.632,7.205,2.631,7.206         C2.63,7.208,2.629,7.209,2.629,7.21C2.628,7.211,2.628,7.211,2.627,7.212C2.626,7.214,2.626,7.215,2.625,7.216         C2.624,7.217,2.624,7.217,2.623,7.218C2.623,7.219,2.622,7.22,2.621,7.222C2.621,7.222,2.62,7.223,2.619,7.224         C2.619,7.225,2.618,7.226,2.618,7.227C2.617,7.228,2.615,7.231,2.614,7.232C2.613,7.233,2.613,7.234,2.612,7.235         C2.611,7.236,2.611,7.237,2.61,7.238C2.61,7.239,2.609,7.24,2.609,7.24C2.608,7.241,2.607,7.243,2.607,7.244         C2.606,7.244,2.605,7.245,2.605,7.245C2.604,7.247,2.604,7.248,2.603,7.249C2.602,7.25,2.602,7.251,2.601,7.252         C2.601,7.253,2.6,7.254,2.599,7.255C2.598,7.257,2.597,7.258,2.596,7.26C2.595,7.261,2.595,7.262,2.594,7.263         C2.594,7.264,2.593,7.265,2.592,7.266C2.592,7.266,2.591,7.268,2.59,7.269C2.59,7.269,2.589,7.27,2.589,7.27         C2.588,7.272,2.587,7.273,2.587,7.273C2.586,7.275,2.586,7.276,2.585,7.277C2.584,7.278,2.584,7.279,2.583,7.28         C2.582,7.282,2.581,7.283,2.579,7.285C2.579,7.286,2.579,7.286,2.578,7.287C2.577,7.288,2.577,7.29,2.576,7.291         c0,0-0.001,0.002-0.001,0.002C2.574,7.294,2.573,7.296,2.572,7.297C2.571,7.298,2.571,7.298,2.571,7.299         C2.57,7.3,2.569,7.301,2.568,7.302C2.568,7.303,2.567,7.304,2.567,7.305C2.566,7.307,2.564,7.308,2.563,7.31l0,0         C2.562,7.312,2.561,7.314,2.559,7.316c0,0-0.001,0.001-0.001,0.001C2.557,7.319,2.557,7.32,2.556,7.322         C2.555,7.323,2.555,7.323,2.554,7.324C2.554,7.325,2.553,7.326,2.552,7.328c0,0-0.001,0.002-0.001,0.002         C2.548,7.334,2.546,7.338,2.543,7.341l0,0C2.542,7.344,2.54,7.346,2.539,7.348l0,0C2.538,7.35,2.536,7.352,2.535,7.354         c0,0,0,0,0,0c-0.027,0.042-0.054,0.084-0.08,0.126l0.634,0.4c0.161-0.256,0.33-0.506,0.505-0.751L2.985,6.691L2.985,6.691z          M1.973,8.298C1.82,8.574,1.676,8.857,1.54,9.143l0.677,0.322c0.13-0.273,0.267-0.542,0.413-0.806L1.973,8.298L1.973,8.298z          M1.158,10.013c-0.034,0.085-0.068,0.171-0.101,0.257c0,0,0,0.001,0,0.001c-0.003,0.007-0.005,0.014-0.008,0.021l0,0.001         c-0.001,0.002-0.001,0.003-0.002,0.005c0,0,0,0.001-0.001,0.002c-0.001,0.001-0.001,0.003-0.002,0.005l0,0.001         c-0.002,0.005-0.004,0.01-0.006,0.015c0,0.001,0,0.001-0.001,0.002c-0.001,0.001-0.001,0.003-0.002,0.004         c0,0.001-0.001,0.002-0.001,0.002c-0.001,0.001-0.001,0.003-0.002,0.004c0,0.001,0,0.001-0.001,0.002         c-0.001,0.001-0.001,0.003-0.002,0.004c0,0,0,0.001,0,0.001c-0.001,0.004-0.003,0.007-0.004,0.011l0,0         c-0.001,0.001-0.001,0.003-0.002,0.005l-0.001,0.001c-0.001,0.001-0.001,0.003-0.002,0.004c0,0.001-0.001,0.002-0.001,0.002         c-0.001,0.001-0.001,0.002-0.001,0.004c0,0,0,0.001-0.001,0.002c-0.002,0.005-0.003,0.009-0.005,0.014         c0,0.001-0.001,0.002-0.001,0.002c-0.001,0.001-0.001,0.003-0.002,0.004c0,0.001,0,0.001-0.001,0.002         c-0.001,0.001-0.001,0.003-0.002,0.004c0,0.001,0,0.001-0.001,0.002c-0.002,0.007-0.005,0.014-0.008,0.021         c0,0,0,0.001,0,0.001C1,10.421,0.999,10.422,0.999,10.424c0,0,0,0.001,0,0.001c-0.001,0.002-0.001,0.003-0.002,0.005l0,0.001         c-0.003,0.008-0.005,0.015-0.008,0.022l0,0c-0.052,0.141-0.102,0.283-0.151,0.426c0,0.001,0,0.001-0.001,0.002         c0,0.001-0.001,0.003-0.001,0.004c0,0.001,0,0.001-0.001,0.002c0,0.001-0.001,0.003-0.001,0.004         c0,0.001-0.001,0.002-0.001,0.003c-0.001,0.002-0.001,0.003-0.002,0.005C0.83,10.9,0.829,10.902,0.829,10.903l0,0         l0.711,0.239c0.096-0.287,0.201-0.57,0.314-0.849L1.158,10.013L1.158,10.013z M0.553,11.813         c-0.079,0.293-0.15,0.59-0.213,0.889c0,0,0,0,0,0c-0.002,0.008-0.003,0.016-0.005,0.023c0,0,0,0.001,0,0.002         c0,0.002-0.001,0.003-0.001,0.005c0,0.001,0,0.001,0,0.002c0,0.001,0,0.002-0.001,0.003l0.734,0.152         c0.061-0.297,0.132-0.59,0.21-0.88L0.553,11.813L0.553,11.813z M0.168,13.672c-0.024,0.167-0.046,0.334-0.065,0.503l0,0.001         c0,0.002,0,0.004-0.001,0.006l0,0.001c0,0.002,0,0.004-0.001,0.006l0,0C0.101,14.194,0.1,14.2,0.099,14.206         c0,0,0,0.001,0,0.001c0,0.002,0,0.003-0.001,0.005c0,0.001,0,0.002,0,0.003c0,0.001,0,0.003,0,0.004c0,0.001,0,0.002,0,0.003         c0,0.001,0,0.003,0,0.004c0,0.001,0,0.002,0,0.003c0,0.002,0,0.002,0,0.004c0,0.001,0,0.003,0,0.004c0,0.001,0,0.001,0,0.002         c0,0.002,0,0.005-0.001,0.007c0,0.001,0,0.001,0,0.002c0,0.002,0,0.003-0.001,0.005c0,0.001,0,0.002,0,0.002         c0,0.002,0,0.004-0.001,0.005c0,0.001,0,0.001,0,0.002c0,0.002,0,0.003-0.001,0.005l0,0.002c0,0.002,0,0.004-0.001,0.007l0,0         c-0.001,0.01-0.002,0.02-0.003,0.029l0,0c-0.011,0.103-0.021,0.207-0.03,0.311l0.747,0.064         c0.026-0.302,0.061-0.602,0.104-0.899L0.168,13.672L0.168,13.672z M0.006,15.564C0.003,15.682,0.001,15.8,0,15.918         c0,0.001,0,0,0,0.001c0,0.002,0,0.004,0,0.006c0,0,0,0,0,0.001c0,0.002,0,0.004,0,0.005c0,0.001,0,0.001,0,0.002         c0,0.002,0,0.003,0,0.005c0,0.001,0,0.001,0,0.002c0,0.002,0,0.003,0,0.005c0,0.001,0,0.001,0,0.002c0,0.002,0,0.003,0,0.005         c0,0.001,0,0.001,0,0.001c0,0.002,0,0.004,0,0.005l0,0.002c0,0.001,0,0.003,0,0.004c0,0.001,0,0.002,0,0.003         c0,0.001,0,0.002,0,0.004c0,0.001,0,0.002,0,0.003c0,0.001,0,0.003,0,0.004c0,0.001,0,0.002,0,0.003c0,0.001,0,0.003,0,0.004         c0,0.001,0,0.002,0,0.003c0,0.002,0,0.004,0,0.006l0,0.001C0,15.995,0,15.998,0,16l0,0c0,0.002,0,0.005,0,0.007         c0,0,0,0.002,0,0.002c0,0.002,0,0.003,0,0.005c0,0.001,0,0.002,0,0.003c0,0.002,0,0.003,0,0.005l0,0.003         c0,0.002,0,0.004,0,0.006c0,0.001,0,0.001,0,0.002c0,0.002,0,0.004,0,0.006c0,0.001,0,0.001,0,0.003c0,0.002,0,0.003,0,0.005         c0,0.001,0,0.001,0,0.003c0,0.002,0,0.004,0,0.005c0,0.001,0,0.002,0,0.002c0,0.003,0,0.005,0,0.007c0,0,0,0,0,0.001         c0,0.002,0,0.005,0,0.007c0,0.001,0,0.001,0,0.001c0,0.002,0,0.004,0,0.006c0,0.001,0,0.001,0,0.002c0,0.002,0,0.004,0,0.006         c0,0.001,0,0.001,0,0.001c0,0.006,0,0.011,0,0.016l0,0c0,0.002,0,0.005,0,0.007c0,0,0,0.001,0,0.001c0,0.002,0,0.004,0,0.007         c0,0.001,0,0.001,0,0.001c0,0.008,0,0.016,0,0.024v0c0.001,0.123,0.004,0.246,0.007,0.369l0.75-0.024         C0.753,16.328,0.75,16.164,0.75,16c0-0.139,0.002-0.278,0.006-0.416L0.006,15.564L0.006,15.564z M0.813,17.395l-0.747,0.068         c0.009,0.094,0.018,0.188,0.028,0.281c0,0.001,0,0.001,0,0.002c0,0.002,0,0.004,0.001,0.005c0,0.001,0,0.002,0,0.003         c0,0.001,0,0.003,0,0.004c0,0.001,0,0.003,0,0.004c0,0.001,0,0.002,0,0.003c0,0.002,0,0.002,0,0.004c0,0.001,0,0.001,0,0.002         c0.018,0.16,0.038,0.321,0.06,0.479c0,0.001,0,0.001,0,0.002c0,0.002,0,0.002,0.001,0.004c0,0.001,0,0.002,0,0.003         c0,0.001,0,0.003,0.001,0.004c0,0.001,0,0.003,0.001,0.004c0,0.001,0,0.002,0,0.003c0,0.002,0.001,0.004,0.001,0.006l0,0.001         c0.006,0.044,0.013,0.088,0.019,0.131l0.742-0.112C0.876,17.997,0.84,17.697,0.813,17.395L0.813,17.395z M1.083,19.184         L0.349,19.34c0.014,0.067,0.029,0.133,0.044,0.2c0,0,0,0.001,0,0.001c0.001,0.002,0.001,0.004,0.001,0.006l0,0.001         c0,0.002,0.001,0.004,0.001,0.006l0,0c0.001,0.004,0.002,0.007,0.002,0.011c0,0,0,0.001,0,0.001         c0,0.002,0.001,0.003,0.001,0.004c0,0.001,0,0.002,0.001,0.003c0,0.002,0.001,0.002,0.001,0.004c0,0.001,0,0.002,0.001,0.003         c0,0.001,0.001,0.002,0.001,0.003c0,0.001,0.001,0.003,0.001,0.004l0.001,0.002c0,0.002,0.001,0.004,0.001,0.006         c0,0.001,0,0,0,0.001c0.001,0.002,0.001,0.005,0.002,0.007c0,0,0,0,0,0.001c0,0.002,0.001,0.004,0.001,0.006l0,0.001         c0,0.002,0.001,0.004,0.001,0.006l0,0.001c0.05,0.217,0.105,0.433,0.164,0.646l0.723-0.199         C1.217,19.774,1.146,19.481,1.083,19.184L1.083,19.184z M1.564,20.929l-0.71,0.242c0.103,0.301,0.214,0.597,0.334,0.889         l0.694-0.284C1.768,21.497,1.662,21.215,1.564,20.929L1.564,20.929z M2.249,22.603l-0.676,0.325         c0.085,0.177,0.174,0.354,0.266,0.527c0,0,0,0.001,0.001,0.001c0.001,0.002,0.001,0.003,0.002,0.005c0,0,0,0.001,0,0.001         c0.001,0.002,0.002,0.003,0.003,0.005l0,0c0.002,0.003,0.003,0.006,0.005,0.009c0,0,0,0.001,0,0.001         c0.001,0.001,0.001,0.003,0.002,0.004c0,0.001,0.001,0.001,0.001,0.001c0.001,0.002,0.002,0.003,0.002,0.004         c0,0.001,0.001,0.002,0.001,0.002c0.001,0.002,0.002,0.003,0.002,0.004c0.001,0.001,0.001,0.002,0.002,0.003         c0,0.001,0.001,0.002,0.001,0.003c0.001,0.001,0.001,0.003,0.002,0.004c0.001,0.001,0.002,0.004,0.003,0.005         c0,0.001,0.001,0.002,0.001,0.003c0.001,0.001,0.001,0.002,0.002,0.003c0,0.001,0.001,0.002,0.001,0.003         c0,0.001,0.001,0.002,0.002,0.003c0.001,0.001,0.001,0.002,0.002,0.003c0,0.001,0.001,0.002,0.001,0.003         c0.001,0.002,0.002,0.003,0.003,0.005c0,0,0,0.001,0.001,0.001c0.001,0.002,0.002,0.004,0.003,0.006         c0,0.001,0.001,0.001,0.001,0.002c0.001,0.001,0.002,0.003,0.002,0.004c0,0,0.001,0.001,0.001,0.002         c0.001,0.002,0.002,0.003,0.002,0.005c0,0,0.001,0.001,0.001,0.001c0.001,0.002,0.002,0.004,0.003,0.006l0,0         c0.002,0.004,0.005,0.008,0.007,0.013c0,0,0,0,0,0.001c0.001,0.002,0.002,0.004,0.003,0.006l0,0         c0.035,0.065,0.071,0.13,0.107,0.195l0.655-0.365C2.52,23.143,2.381,22.875,2.249,22.603L2.249,22.603z M3.13,24.184         l-0.632,0.403c0.17,0.267,0.349,0.529,0.534,0.786l0.608-0.44C3.462,24.689,3.292,24.439,3.13,24.184L3.13,24.184z          M4.191,25.65l-0.58,0.475c0.011,0.013,0.022,0.027,0.033,0.04c0,0,0,0,0,0c0.002,0.002,0.003,0.004,0.004,0.005l0.001,0.001         c0.003,0.004,0.006,0.007,0.009,0.011c0,0,0.001,0.001,0.001,0.001c0.001,0.001,0.002,0.003,0.003,0.004         c0.001,0.001,0.001,0.002,0.002,0.002c0.001,0.001,0.001,0.002,0.002,0.003c0.001,0.001,0.002,0.002,0.002,0.003         c0.001,0.001,0.001,0.001,0.002,0.002c0.005,0.006,0.009,0.011,0.014,0.016c0,0,0,0.001,0.001,0.001         c0.107,0.129,0.216,0.256,0.328,0.382c0,0,0,0,0,0c0.005,0.006,0.01,0.012,0.015,0.017c0,0,0.001,0.001,0.001,0.001         c0.001,0.001,0.002,0.003,0.004,0.004l0,0c0.007,0.007,0.013,0.014,0.019,0.022c0,0,0,0,0.001,0.001         c0.001,0.001,0.002,0.002,0.004,0.004c0,0,0,0,0.001,0.001c0.001,0.001,0.002,0.003,0.004,0.004l0,0         c0.005,0.006,0.01,0.012,0.016,0.017c0,0,0,0.001,0.001,0.001c0.005,0.006,0.01,0.011,0.015,0.016         c0,0.001,0.001,0.001,0.001,0.002c0.001,0.001,0.002,0.002,0.003,0.004c0,0,0.001,0.001,0.001,0.001         c0.001,0.001,0.002,0.002,0.003,0.004c0,0,0,0,0.001,0.001c0.005,0.006,0.01,0.011,0.015,0.017c0,0,0,0.001,0.001,0.001         c0.001,0.001,0.002,0.002,0.003,0.004l0.001,0.001c0.003,0.004,0.007,0.008,0.011,0.012c0,0,0.001,0.001,0.001,0.001         c0.001,0.001,0.002,0.002,0.003,0.004c0,0,0.001,0.001,0.001,0.001c0.001,0.001,0.002,0.002,0.003,0.004l0.001,0.001         c0.005,0.005,0.01,0.011,0.015,0.016c0,0,0.001,0.001,0.001,0.001c0.001,0.001,0.002,0.002,0.003,0.004c0,0,0,0,0,0         c0.007,0.008,0.013,0.015,0.02,0.022l0,0c0.018,0.019,0.035,0.039,0.053,0.058l0.551-0.508         C4.581,26.112,4.382,25.884,4.191,25.65L4.191,25.65z M5.418,26.981l-0.52,0.54c0.001,0.001,0.001,0.001,0.002,0.002         l0.001,0.001c0.001,0.001,0.002,0.002,0.004,0.004c0,0,0,0,0.001,0.001c0.003,0.002,0.004,0.004,0.007,0.007         c0,0,0.001,0.001,0.001,0.001c0.001,0.001,0.002,0.002,0.002,0.002c0.001,0.001,0.002,0.002,0.003,0.003         c0.001,0.001,0.001,0.001,0.002,0.002c0.001,0.001,0.002,0.002,0.003,0.003c0,0,0.001,0.001,0.001,0.001         c0.002,0.002,0.003,0.003,0.005,0.005l0,0c0.004,0.003,0.007,0.007,0.011,0.01l0,0c0.214,0.205,0.434,0.404,0.66,0.597         l0.488-0.57C5.859,27.394,5.636,27.191,5.418,26.981L5.418,26.981z M6.794,28.159l-0.453,0.598         c0.252,0.191,0.51,0.375,0.773,0.551l0.417-0.623C7.28,28.516,7.034,28.341,6.794,28.159L6.794,28.159z M8.298,29.165         l-0.379,0.647c0.166,0.097,0.334,0.192,0.504,0.283l0,0c0.002,0.001,0.004,0.002,0.006,0.003c0,0,0,0,0.001,0         c0.002,0.001,0.004,0.002,0.006,0.003l0.001,0c0.004,0.002,0.009,0.005,0.013,0.007l0,0c0.002,0.001,0.004,0.002,0.006,0.003         l0.001,0c0.002,0.001,0.004,0.002,0.006,0.003c0,0,0,0,0.001,0c0.006,0.003,0.013,0.007,0.019,0.01c0,0,0,0,0.001,0         c0.002,0.001,0.004,0.002,0.006,0.003c0,0,0,0,0.001,0c0.009,0.005,0.017,0.009,0.026,0.014l0,0         c0.079,0.042,0.158,0.083,0.237,0.123l0.34-0.668C8.823,29.462,8.558,29.318,8.298,29.165L8.298,29.165z M9.911,29.986         l-0.3,0.687c0.063,0.028,0.127,0.055,0.19,0.082l0,0c0.002,0.001,0.004,0.002,0.006,0.003l0.001,0         c0.002,0.001,0.004,0.002,0.006,0.002c0,0,0,0,0.001,0c0.004,0.002,0.009,0.004,0.013,0.005c0.001,0,0.001,0.001,0.002,0.001         c0.001,0.001,0.003,0.001,0.004,0.002c0.001,0,0.002,0.001,0.003,0.001c0.001,0.001,0.003,0.001,0.004,0.002         c0.001,0,0.002,0.001,0.003,0.001c0.001,0.001,0.003,0.001,0.004,0.002c0.001,0,0.002,0.001,0.002,0.001         c0.001,0.001,0.003,0.001,0.004,0.002s0.003,0.001,0.004,0.002c0.001,0.001,0.003,0.001,0.004,0.002         c0.001,0.001,0.002,0.001,0.003,0.001c0.001,0,0.002,0.001,0.002,0.001c0.002,0.001,0.004,0.002,0.005,0.002         c0.001,0,0.002,0.001,0.002,0.001c0.001,0.001,0.003,0.001,0.004,0.002c0,0,0.001,0,0.001,0         c0.007,0.003,0.014,0.006,0.021,0.009c0,0,0.001,0,0.001,0c0.002,0.001,0.003,0.001,0.005,0.002l0.001,0         c0.126,0.052,0.252,0.102,0.379,0.151l0,0c0.007,0.003,0.015,0.006,0.022,0.008c0,0,0.001,0,0.001,0         c0.002,0.001,0.003,0.001,0.004,0.002c0.001,0,0.002,0.001,0.003,0.001c0.001,0.001,0.002,0.001,0.004,0.001         c0.001,0,0.001,0,0.002,0.001c0.001,0.001,0.003,0.001,0.004,0.002l0.001,0.001c0.002,0.001,0.005,0.002,0.007,0.003         c0.001,0,0.002,0.001,0.003,0.001c0.001,0,0.002,0.001,0.003,0.001c0.001,0,0.002,0.001,0.003,0.001         c0.001,0,0.002,0.001,0.003,0.001c0.001,0,0.002,0.001,0.003,0.001c0.001,0,0.002,0.001,0.003,0.001         c0.001,0,0.003,0.001,0.004,0.001c0.001,0,0.001,0,0.002,0.001c0.002,0.001,0.004,0.002,0.006,0.002c0,0,0,0,0.001,0         c0.002,0.001,0.004,0.001,0.006,0.002c0,0,0.001,0,0.002,0.001c0.002,0.001,0.003,0.001,0.005,0.002         c0.001,0,0.001,0,0.002,0.001c0.002,0.001,0.003,0.001,0.005,0.002c0,0,0.001,0,0.001,0c0.035,0.013,0.069,0.026,0.104,0.039         l0.258-0.704C10.467,30.219,10.187,30.106,9.911,29.986L9.911,29.986z M11.61,30.609l-0.216,0.718         c0.054,0.016,0.108,0.032,0.163,0.048c0,0,0.001,0,0.002,0c0.002,0,0.003,0.001,0.005,0.001c0,0,0.002,0,0.002,0.001         c0.002,0,0.003,0.001,0.005,0.001c0.001,0,0.001,0,0.002,0.001c0.002,0.001,0.004,0.001,0.006,0.002         c0.001,0,0.002,0.001,0.004,0.001c0.001,0,0.002,0.001,0.004,0.001c0.001,0,0.002,0.001,0.004,0.001         c0.001,0,0.002,0,0.002,0.001c0.001,0,0.003,0.001,0.004,0.001c0.001,0,0.001,0,0.002,0.001c0.001,0,0.003,0.001,0.005,0.001         l0,0c0.234,0.067,0.471,0.128,0.709,0.185l0.172-0.73C12.189,30.773,11.897,30.695,11.61,30.609L11.61,30.609z          M13.371,31.024l-0.128,0.739c0.31,0.054,0.624,0.099,0.94,0.135l0.084-0.745C13.965,31.119,13.666,31.076,13.371,31.024         L13.371,31.024z M15.169,31.228l-0.04,0.749c0.257,0.014,0.515,0.021,0.775,0.023l0.001,0c0.002,0,0.004,0,0.006,0         c0,0,0.001,0,0.001,0c0.002,0,0.004,0,0.005,0c0.001,0,0.001,0,0.001,0c0.002,0,0.004,0,0.006,0c0.001,0,0.001,0,0.002,0         c0.002,0,0.003,0,0.005,0c0.001,0,0.001,0,0.002,0c0.001,0,0.003,0,0.004,0c0.001,0,0.001,0,0.003,0c0.001,0,0.003,0,0.004,0         c0.001,0,0.002,0,0.003,0c0.001,0,0.003,0,0.004,0c0.001,0,0.002,0,0.003,0c0.001,0,0.003,0,0.004,0c0.001,0,0.002,0,0.003,0         c0.001,0,0.002,0,0.004,0c0.001,0,0.002,0,0.003,0c0.001,0,0.002,0,0.003,0c0.001,0,0.002,0,0.003,0c0.001,0,0.003,0,0.004,0         c0.001,0,0.002,0,0.003,0c0.001,0,0.002,0,0.003,0c0.001,0,0.002,0,0.003,0c0.002,0,0.003,0,0.005,0h0.001         c0.002,0,0.005,0,0.007,0c0.003,0,0.006,0,0.008,0c0.001,0,0.002,0,0.003,0c0.001,0,0.003,0,0.004,0c0.021,0,0.042,0,0.063,0         l-0.004-0.75l-0.075,0C15.721,31.25,15.444,31.243,15.169,31.228L15.169,31.228z M17.882,31.135         c-0.298,0.037-0.598,0.065-0.901,0.084l0.047,0.749c0.068-0.004,0.135-0.009,0.203-0.014l0,0         c0.008-0.001,0.016-0.001,0.024-0.002c0.001,0,0.001,0,0.002,0c0.002,0,0.003,0,0.004,0c0,0,0.001,0,0.002,0         c0.001,0,0.003,0,0.004,0c0.001,0,0.002,0,0.003,0c0.001,0,0.002,0,0.003,0c0.002,0,0.003,0,0.005,0l0.002,0         c0.005,0,0.01-0.001,0.014-0.001l0.001,0c0.002,0,0.004,0,0.006-0.001c0,0,0,0,0.001,0c0.002,0,0.004,0,0.007-0.001l0.001,0         c0.2-0.016,0.399-0.036,0.597-0.06c0.001,0,0.001,0,0.002,0c0.002,0,0.003,0,0.005-0.001c0.001,0,0.002,0,0.003,0         c0.001,0,0.002,0,0.003,0c0.001,0,0.003,0,0.004,0c0.001,0,0.002,0,0.003,0c0.002,0,0.003,0,0.005-0.001c0,0,0,0,0,0         c0.014-0.002,0.028-0.003,0.042-0.005L17.882,31.135L17.882,31.135z M19.662,30.808c-0.292,0.072-0.587,0.135-0.885,0.19         l0.136,0.738c0.014-0.003,0.028-0.005,0.042-0.008l0,0c0.002,0,0.003-0.001,0.005-0.001c0.001,0,0.001,0,0.002,0         c0.002,0,0.003-0.001,0.004-0.001c0,0,0.001,0,0.002,0c0.002,0,0.003-0.001,0.004-0.001c0.001,0,0.002,0,0.003-0.001         c0.002,0,0.002,0,0.004-0.001c0.002,0,0.004-0.001,0.006-0.001c0.001,0,0.002,0,0.003-0.001c0.001,0,0.003-0.001,0.004-0.001         c0.001,0,0.002,0,0.003-0.001c0.001,0,0.002,0,0.004-0.001c0.001,0,0.002,0,0.003-0.001c0.002,0,0.003-0.001,0.005-0.001         c0,0,0.001,0,0.002,0c0.002,0,0.004-0.001,0.006-0.001l0.001,0c0.005-0.001,0.01-0.002,0.014-0.003l0,0         c0.002,0,0.005-0.001,0.007-0.001l0,0c0.002,0,0.005-0.001,0.007-0.001l0,0c0.268-0.052,0.534-0.11,0.797-0.175         L19.662,30.808L19.662,30.808z M21.39,30.27c-0.281,0.106-0.567,0.205-0.856,0.294l0.223,0.716         c0.152-0.047,0.302-0.096,0.452-0.148l0.001,0c0.002-0.001,0.004-0.001,0.006-0.002l0.001,0         c0.002-0.001,0.004-0.001,0.006-0.002l0,0c0.007-0.002,0.014-0.005,0.02-0.007c0,0,0.001,0,0.001,0         c0.002-0.001,0.004-0.001,0.005-0.002c0,0,0.001,0,0.002-0.001c0.002-0.001,0.003-0.001,0.005-0.002l0.002-0.001         c0.002-0.001,0.004-0.001,0.005-0.002c0,0,0.001,0,0.001,0c0.002-0.001,0.004-0.002,0.007-0.002c0,0,0.001,0,0.001-0.001         c0.002-0.001,0.003-0.001,0.005-0.002c0.001,0,0.002-0.001,0.003-0.001c0.001,0,0.003-0.001,0.004-0.001         c0.001,0,0.002-0.001,0.003-0.001c0.001,0,0.002-0.001,0.004-0.001c0.001,0,0.002-0.001,0.003-0.001         c0.002-0.001,0.004-0.001,0.005-0.002c0.001,0,0.002-0.001,0.003-0.001c0.002-0.001,0.003-0.001,0.005-0.002         c0.001,0,0.002-0.001,0.003-0.001c0.001,0,0.002-0.001,0.003-0.001c0.001,0,0.002-0.001,0.003-0.001         c0.001,0,0.002-0.001,0.003-0.001c0.001-0.001,0.002-0.001,0.004-0.001c0.001,0,0.001-0.001,0.001-0.001         c0.006-0.002,0.011-0.004,0.016-0.005c0,0,0.001,0,0.001,0c0.002-0.001,0.003-0.001,0.005-0.002c0,0,0.001,0,0.001,0         c0.002-0.001,0.003-0.001,0.005-0.002c0,0,0.001,0,0.001,0c0.101-0.036,0.203-0.073,0.303-0.111L21.39,30.27L21.39,30.27z          M23.041,29.531c-0.267,0.139-0.539,0.271-0.815,0.394l0.307,0.684c0.232-0.104,0.461-0.213,0.686-0.327l0,0         c0.007-0.004,0.014-0.007,0.021-0.011l0,0c0.011-0.005,0.021-0.011,0.032-0.016c0,0,0,0,0,0         c0.002-0.001,0.003-0.002,0.005-0.003c0,0,0,0,0,0c0.007-0.004,0.014-0.007,0.021-0.011c0,0,0,0,0,0         c0.002-0.001,0.003-0.002,0.005-0.002l0.001,0c0.027-0.014,0.055-0.028,0.082-0.042L23.041,29.531L23.041,29.531z          M24.593,28.6c-0.249,0.17-0.503,0.333-0.762,0.488l0.386,0.643c0.036-0.022,0.072-0.043,0.108-0.065l0,0         c0.002-0.001,0.004-0.002,0.005-0.003c0,0,0.001,0,0.001,0c0.004-0.003,0.008-0.005,0.012-0.007         c0.001-0.001,0.002-0.001,0.002-0.001c0.001-0.001,0.002-0.001,0.003-0.002c0.001-0.001,0.002-0.001,0.003-0.002         c0.001,0,0.001-0.001,0.002-0.001c0.001-0.001,0.002-0.002,0.004-0.002c0,0,0.001-0.001,0.002-0.001         c0.006-0.004,0.013-0.008,0.019-0.012l0,0c0.08-0.05,0.16-0.099,0.239-0.15c0,0,0,0,0,0c0.001-0.001,0.003-0.002,0.004-0.003         c0.001,0,0.001-0.001,0.002-0.001c0.001-0.001,0.002-0.002,0.003-0.002c0.001-0.001,0.002-0.001,0.002-0.002         c0.001-0.001,0.002-0.001,0.003-0.002c0.002-0.001,0.003-0.002,0.005-0.003c0,0,0.002-0.001,0.002-0.001         c0.001-0.001,0.003-0.002,0.004-0.003l0.002-0.001c0.001-0.001,0.002-0.002,0.004-0.002c0.001-0.001,0.001-0.001,0.002-0.001         c0.001-0.001,0.003-0.002,0.004-0.003c0,0,0.001-0.001,0.002-0.001c0.004-0.003,0.008-0.005,0.012-0.008l0.001,0         c0.002-0.001,0.004-0.002,0.006-0.004l0,0c0.114-0.074,0.227-0.149,0.34-0.226L24.593,28.6L24.593,28.6z M26.025,27.492         c-0.227,0.198-0.461,0.39-0.699,0.575l0.459,0.593c0.012-0.009,0.023-0.018,0.035-0.027c0,0,0,0,0,0         c0.004-0.003,0.008-0.006,0.012-0.009c0,0,0,0,0,0c0.002-0.001,0.003-0.003,0.005-0.004c0,0,0.001,0,0.001-0.001         c0.002-0.001,0.003-0.002,0.005-0.004c0,0,0.001-0.001,0.001-0.001c0.002-0.001,0.003-0.002,0.005-0.004l0.001-0.001         c0.002-0.001,0.004-0.003,0.005-0.004l0.001-0.001c0.001-0.001,0.003-0.002,0.004-0.003l0.002-0.002         c0.001-0.001,0.002-0.002,0.003-0.002c0.001-0.001,0.002-0.001,0.003-0.002c0.001-0.001,0.002-0.002,0.003-0.002         c0.001-0.001,0.002-0.001,0.003-0.002c0.001-0.001,0.002-0.001,0.003-0.002c0.002-0.002,0.004-0.003,0.006-0.004         c0.001,0,0.001-0.001,0.002-0.001c0.001-0.001,0.002-0.002,0.003-0.003c0.001,0,0.001-0.001,0.001-0.001         c0.002-0.002,0.003-0.002,0.004-0.003l0.001-0.001c0.001-0.001,0.003-0.002,0.004-0.003c0,0,0.001,0,0.001-0.001         c0.006-0.005,0.012-0.009,0.018-0.014l0.001,0c0.205-0.162,0.405-0.329,0.602-0.5L26.025,27.492L26.025,27.492z          M27.316,26.223c-0.203,0.224-0.412,0.442-0.627,0.654l0.526,0.535c0.226-0.222,0.445-0.451,0.658-0.686L27.316,26.223         L27.316,26.223z M28.449,24.811c-0.175,0.246-0.357,0.487-0.545,0.723l0.585,0.469c0.118-0.147,0.232-0.295,0.345-0.446         c0,0,0,0,0-0.001c0.001-0.002,0.003-0.004,0.004-0.005l0,0c0.001-0.002,0.003-0.004,0.004-0.006l0,0         c0.003-0.004,0.006-0.008,0.009-0.012c0,0,0.001-0.001,0.001-0.001c0.001-0.001,0.002-0.003,0.003-0.004         c0.001-0.001,0-0.001,0.001-0.001c0.001-0.001,0.002-0.003,0.003-0.004l0.001-0.001c0.003-0.004,0.005-0.007,0.008-0.011         c0.001-0.001,0.001-0.001,0.002-0.002c0.001-0.001,0.002-0.002,0.003-0.004c0,0,0.001-0.001,0.001-0.002         c0.001-0.001,0.002-0.003,0.003-0.004c0,0,0.001-0.001,0.001-0.001c0.001-0.002,0.002-0.003,0.004-0.005         c0,0,0.001-0.001,0.001-0.001c0.001-0.002,0.003-0.003,0.004-0.005c0.001-0.001,0.001-0.002,0.002-0.003         c0.001-0.001,0.001-0.002,0.002-0.003c0.001-0.001,0.001-0.002,0.002-0.003c0.001-0.001,0.002-0.002,0.002-0.003         c0.001-0.001,0.001-0.002,0.002-0.003c0.001-0.001,0.001-0.002,0.002-0.003c0.001-0.001,0.001-0.002,0.002-0.002         c0.001-0.002,0.002-0.003,0.003-0.005c0.001-0.001,0.002-0.002,0.002-0.003c0.001-0.001,0.002-0.002,0.002-0.003         c0.001-0.001,0.001-0.002,0.002-0.003c0.001-0.001,0.001-0.002,0.002-0.003c0,0,0.001-0.002,0.002-0.003         c0,0,0.001-0.002,0.002-0.003c0.001-0.001,0.001-0.002,0.002-0.003c0.001-0.001,0.001-0.001,0.002-0.002         c0.001-0.002,0.003-0.004,0.005-0.006l0.001-0.002c0.001-0.001,0.001-0.002,0.002-0.003c0.001-0.001,0.001-0.002,0.002-0.002         c0.001-0.001,0.002-0.002,0.002-0.003c0.001-0.001,0.001-0.002,0.002-0.003c0.001-0.001,0.001-0.001,0.002-0.003         c0.001-0.001,0.001-0.002,0.002-0.003c0.001-0.002,0.003-0.004,0.004-0.006c0,0,0.001-0.001,0.001-0.002         c0.001-0.001,0.001-0.002,0.002-0.003c0.001-0.001,0.001-0.001,0.002-0.002c0.001-0.001,0.002-0.002,0.002-0.003         c0.001-0.001,0.001-0.002,0.002-0.003c0.001-0.001,0.001-0.002,0.002-0.003c0.001-0.001,0.001-0.002,0.002-0.002         c0.002-0.002,0.003-0.004,0.005-0.007c0,0,0.001-0.001,0.001-0.001c0.001-0.001,0.001-0.002,0.002-0.003         c0.001-0.001,0.001-0.002,0.002-0.003c0.001-0.001,0.001-0.002,0.002-0.003c0.001-0.001,0.001-0.002,0.002-0.003         c0.001-0.001,0.001-0.002,0.001-0.002c0.001-0.002,0.002-0.003,0.002-0.003c0.001-0.001,0.002-0.002,0.002-0.003         c0.001-0.002,0.002-0.003,0.004-0.005c0.001-0.001,0.001-0.001,0.002-0.002c0.001-0.001,0.002-0.002,0.002-0.003         c0.001-0.001,0.001-0.002,0.002-0.003c0.001-0.001,0.001-0.002,0.002-0.003c0.001-0.001,0.001-0.002,0.002-0.003         c0.001-0.001,0.001-0.002,0.002-0.003c0.001-0.001,0.001-0.002,0.002-0.003c0.001-0.001,0.002-0.002,0.003-0.004         c0.001-0.001,0.002-0.003,0.003-0.004c0.001-0.001,0.002-0.002,0.002-0.003c0.001-0.001,0.001-0.002,0.002-0.003         c0.001-0.001,0.002-0.002,0.002-0.003c0.001-0.001,0.001-0.001,0.002-0.002c0.001-0.001,0.002-0.002,0.002-0.003         c0.001-0.001,0.001-0.002,0.002-0.002c0.001-0.001,0.002-0.003,0.003-0.004c0,0,0.001-0.001,0.001-0.001         c0.001-0.002,0.003-0.004,0.004-0.005c0.001-0.001,0.001-0.001,0.001-0.002c0.001-0.001,0.002-0.003,0.003-0.004         c0.001-0.001,0.001-0.001,0.001-0.002c0.001-0.001,0.002-0.003,0.003-0.004c0,0,0.001-0.001,0.001-0.001         c0.002-0.002,0.003-0.004,0.004-0.006c0,0,0,0,0,0c0.003-0.004,0.006-0.008,0.008-0.012l0-0.001         c0.001-0.002,0.003-0.004,0.004-0.006l0,0c0.006-0.008,0.011-0.016,0.017-0.024L28.449,24.811L28.449,24.811z M29.406,23.275         c-0.144,0.266-0.297,0.526-0.456,0.782l0.636,0.397c0.028-0.045,0.056-0.091,0.084-0.136l0.001-0.001         c0.001-0.001,0.002-0.003,0.002-0.004c0-0.001,0.001-0.001,0.001-0.002c0.001-0.001,0.002-0.003,0.002-0.004         c0-0.001,0.001-0.001,0.001-0.001c0.001-0.002,0.002-0.004,0.003-0.006c0.001-0.001,0.002-0.003,0.003-0.004         c0.001-0.001,0.001-0.001,0.001-0.002c0.001-0.001,0.002-0.002,0.002-0.004c0.001-0.001,0.001-0.001,0.002-0.003         c0.001-0.001,0.001-0.002,0.002-0.003c0.001-0.001,0.001-0.002,0.001-0.002c0.001-0.001,0.001-0.002,0.002-0.004         c0,0,0.001-0.002,0.001-0.002c0.002-0.004,0.005-0.008,0.007-0.012c0,0,0.001-0.001,0.001-0.002         c0.001-0.002,0.002-0.003,0.003-0.005l0.001-0.001c0.001-0.002,0.002-0.003,0.003-0.005c0,0,0.001-0.001,0.001-0.002         c0.002-0.004,0.005-0.008,0.007-0.012c0,0,0,0,0,0c0.001-0.002,0.002-0.004,0.004-0.006l0,0         c0.001-0.002,0.002-0.004,0.004-0.006c0,0,0,0,0-0.001c0.117-0.195,0.23-0.393,0.339-0.593L29.406,23.275L29.406,23.275z          M30.175,21.637c-0.112,0.281-0.232,0.558-0.36,0.83l0.679,0.318c0.134-0.286,0.26-0.576,0.377-0.872L30.175,21.637         L30.175,21.637z M30.742,19.919c-0.078,0.293-0.164,0.582-0.258,0.867l0.712,0.235c0.044-0.132,0.086-0.265,0.126-0.399l0,0         c0.001-0.002,0.001-0.004,0.002-0.006c0,0,0-0.001,0-0.001c0.002-0.006,0.003-0.011,0.005-0.017c0,0,0,0,0,0         c0-0.002,0.001-0.003,0.001-0.004c0-0.001,0.001-0.002,0.001-0.003c0-0.001,0.001-0.002,0.001-0.003         c0-0.001,0.001-0.002,0.001-0.003c0-0.001,0.001-0.002,0.001-0.003c0.001-0.002,0.001-0.004,0.002-0.005c0,0,0-0.001,0-0.001         c0.001-0.005,0.003-0.009,0.004-0.014l0,0c0.001-0.002,0.001-0.004,0.002-0.007l0,0c0.044-0.147,0.085-0.295,0.125-0.444         L30.742,19.919L30.742,19.919z M31.1,18.145c-0.042,0.3-0.093,0.598-0.153,0.892l0.735,0.149         c0.011-0.053,0.021-0.106,0.031-0.159c0-0.001,0,0,0-0.001c0-0.002,0.001-0.004,0.001-0.006c0,0,0-0.001,0-0.002         c0-0.001,0.001-0.003,0.001-0.004c0-0.001,0-0.002,0.001-0.003c0-0.001,0-0.003,0.001-0.004c0-0.001,0-0.002,0.001-0.003         c0-0.001,0-0.002,0-0.002c0-0.003,0.001-0.006,0.002-0.009l0-0.001c0-0.002,0.001-0.003,0.001-0.005c0,0,0,0,0,0         c0-0.002,0.001-0.004,0.001-0.006l0,0c0.032-0.168,0.06-0.336,0.087-0.506l0,0c0-0.002,0.001-0.004,0.001-0.006         c0,0,0-0.001,0-0.001c0-0.002,0-0.003,0.001-0.005c0-0.001,0-0.002,0-0.002c0-0.002,0-0.003,0.001-0.004         c0-0.002,0.001-0.004,0.001-0.006c0,0,0-0.001,0-0.001c0-0.002,0.001-0.004,0.001-0.006c0-0.001,0-0.001,0-0.002         c0-0.002,0.001-0.004,0.001-0.006c0-0.001,0-0.001,0-0.001c0-0.002,0.001-0.004,0.001-0.006c0,0,0-0.001,0-0.002         c0-0.002,0.001-0.004,0.001-0.006l0,0c0.009-0.056,0.017-0.113,0.025-0.169L31.1,18.145L31.1,18.145z M31.246,16.341         c-0.007,0.304-0.022,0.606-0.046,0.905l0.748,0.06c0.009-0.11,0.017-0.221,0.023-0.332l0,0c0-0.002,0-0.004,0-0.006         c0,0,0-0.001,0-0.001c0-0.002,0-0.004,0-0.006c0-0.001,0-0.001,0-0.001c0-0.002,0-0.004,0-0.006c0-0.001,0-0.001,0-0.002         c0-0.002,0-0.003,0-0.005c0-0.002,0-0.004,0-0.005c0-0.001,0-0.002,0-0.003c0-0.002,0-0.003,0-0.004c0-0.001,0-0.002,0-0.003         c0-0.002,0-0.003,0-0.004c0-0.001,0-0.002,0-0.002c0-0.002,0-0.004,0-0.005c0-0.001,0-0.001,0-0.002c0-0.002,0-0.004,0-0.005         c0,0,0,0,0-0.001c0.01-0.185,0.018-0.369,0.022-0.555L31.246,16.341L31.246,16.341z M31.927,14.459L31.18,14.53         c0.029,0.299,0.048,0.6,0.06,0.904l0.75-0.027c-0.002-0.066-0.005-0.132-0.008-0.198l0,0c0-0.002,0-0.003,0-0.006l0-0.001         c0-0.002,0-0.004,0-0.005l0-0.002c0-0.002,0-0.003,0-0.005c0-0.001,0-0.002,0-0.003c0-0.002,0-0.004,0-0.006         c0-0.002,0-0.003,0-0.005c0-0.001,0-0.001,0-0.002c0-0.001,0-0.003,0-0.004c0-0.001,0-0.002,0-0.002c0-0.002,0-0.004,0-0.005         c0-0.001,0-0.001,0-0.002c0-0.002,0-0.003,0-0.005c0,0,0-0.002,0-0.002c0-0.002,0-0.004,0-0.006l0-0.001         c-0.001-0.012-0.001-0.025-0.002-0.037l0,0c-0.006-0.101-0.012-0.203-0.02-0.304v0c0-0.002,0-0.005-0.001-0.007l0-0.001         c0-0.002,0-0.005-0.001-0.007l0,0c0-0.002,0-0.004-0.001-0.007l0-0.001c-0.001-0.007-0.001-0.014-0.002-0.022         c0-0.001,0-0.001,0-0.002c0-0.002,0-0.003,0-0.005c0-0.001,0-0.002,0-0.003c0-0.001,0-0.003,0-0.004c0-0.001,0-0.001,0-0.003         c0-0.001,0-0.003,0-0.004c0-0.001,0-0.002,0-0.003c0-0.001,0-0.002,0-0.003c0-0.001,0-0.003,0-0.004l0-0.001         c0-0.003,0-0.006-0.001-0.009c0,0,0-0.002,0-0.002c0-0.002,0-0.003,0-0.005l0-0.002c0-0.002,0-0.003,0-0.005         c0-0.001,0-0.001,0-0.001c0-0.003,0-0.004,0-0.006c0,0,0-0.001,0-0.001C31.941,14.618,31.934,14.539,31.927,14.459         L31.927,14.459z M31.634,12.583l-0.733,0.159c0.064,0.294,0.119,0.59,0.166,0.89l0.741-0.115         c-0.012-0.078-0.025-0.157-0.038-0.235l0-0.001c-0.002-0.01-0.003-0.019-0.005-0.029l0,0c0-0.002-0.001-0.005-0.001-0.007         l0,0c-0.002-0.012-0.004-0.024-0.006-0.036l0-0.001c-0.003-0.014-0.005-0.029-0.008-0.043c0-0.001,0,0,0-0.001         c-0.002-0.009-0.003-0.019-0.005-0.028c0-0.001,0-0.001,0-0.001c0-0.002-0.001-0.004-0.001-0.006l0-0.001         c0-0.002-0.001-0.004-0.001-0.006c0,0,0,0,0-0.001c-0.001-0.007-0.003-0.014-0.004-0.022l0,0         c0-0.002-0.001-0.004-0.001-0.007l0-0.001c0-0.002-0.001-0.004-0.001-0.006c0-0.001,0,0,0,0         c-0.001-0.003-0.001-0.005-0.001-0.007l0,0c-0.001-0.005-0.002-0.01-0.003-0.014l0-0.001c0-0.002-0.001-0.004-0.001-0.006         c0-0.001,0,0,0-0.001c0-0.002-0.001-0.004-0.001-0.006c0,0,0-0.001,0-0.001C31.699,12.891,31.668,12.737,31.634,12.583         L31.634,12.583z M31.12,10.755l-0.709,0.246c0.099,0.284,0.189,0.572,0.271,0.864l0.722-0.203         c0-0.001-0.001-0.002-0.001-0.003c0-0.001-0.001-0.002-0.001-0.003c0-0.001-0.001-0.002-0.001-0.003         c0-0.001-0.001-0.002-0.001-0.003c0-0.001-0.001-0.002-0.001-0.003c0-0.001-0.001-0.002-0.001-0.003         c0-0.001-0.001-0.002-0.001-0.003c0-0.001-0.001-0.002-0.001-0.003c0-0.001-0.001-0.002-0.001-0.003         c-0.001-0.002-0.001-0.004-0.002-0.006c0-0.001,0-0.001,0-0.001c-0.001-0.002-0.001-0.004-0.001-0.005         c0-0.001-0.001-0.002-0.001-0.003c0-0.001-0.001-0.002-0.001-0.003c0-0.001-0.001-0.003-0.001-0.004         c0-0.001-0.001-0.002-0.001-0.003c0-0.001-0.001-0.003-0.001-0.004c0-0.001,0-0.001,0-0.001         c-0.002-0.006-0.003-0.01-0.004-0.015c0-0.001,0-0.001-0.001-0.002c0-0.001-0.001-0.003-0.001-0.004c0-0.001,0-0.001,0-0.001         c-0.001-0.003-0.001-0.003-0.001-0.005c0,0,0-0.001-0.001-0.002c0-0.001-0.001-0.003-0.001-0.005c0,0,0,0,0,0         c-0.002-0.006-0.003-0.012-0.005-0.018v0c-0.001-0.002-0.001-0.004-0.002-0.006l0-0.001         c-0.001-0.002-0.001-0.003-0.002-0.005c0,0,0-0.001,0-0.001c-0.002-0.008-0.004-0.015-0.007-0.023l0,0         c-0.001-0.002-0.001-0.004-0.002-0.006l0,0c-0.001-0.002-0.001-0.004-0.002-0.006c0,0,0,0,0,0         c-0.002-0.008-0.004-0.015-0.007-0.023l0-0.001c-0.001-0.002-0.001-0.003-0.002-0.005l0-0.001         C31.279,11.23,31.202,10.991,31.12,10.755L31.12,10.755z M30.392,9.001L29.718,9.33c0.132,0.271,0.256,0.546,0.372,0.825         l0.693-0.288c-0.049-0.119-0.1-0.237-0.153-0.355l0,0c-0.003-0.007-0.006-0.013-0.009-0.02c0,0-0.001-0.002-0.001-0.002         c-0.001-0.001-0.001-0.002-0.002-0.004c0-0.001-0.001-0.002-0.001-0.003c0-0.001-0.001-0.002-0.001-0.003         c-0.001-0.001-0.001-0.002-0.002-0.003c0-0.001-0.001-0.001-0.001-0.002C30.542,9.316,30.468,9.158,30.392,9.001         L30.392,9.001z M29.46,7.347L28.83,7.753c0.163,0.253,0.319,0.512,0.467,0.775l0.653-0.368         C29.795,7.884,29.632,7.612,29.46,7.347L29.46,7.347z M28.339,5.814l-0.578,0.478c0.192,0.233,0.378,0.471,0.556,0.715         l0.605-0.443C28.735,6.308,28.541,6.058,28.339,5.814L28.339,5.814z M27.045,4.424l-0.518,0.543         c0.218,0.208,0.431,0.423,0.636,0.644L27.713,5.1c-0.051-0.054-0.101-0.108-0.153-0.162l0,0         c-0.003-0.003-0.006-0.007-0.01-0.01l-0.001-0.001c-0.003-0.003-0.006-0.007-0.009-0.01         c-0.001-0.001-0.001-0.001-0.001-0.001c-0.003-0.003-0.006-0.006-0.008-0.009c0,0-0.001-0.001-0.002-0.002         c-0.003-0.003-0.006-0.006-0.009-0.009c-0.001-0.001-0.002-0.002-0.002-0.002c-0.002-0.003-0.005-0.005-0.007-0.008         c-0.001-0.001-0.002-0.002-0.003-0.003c-0.002-0.002-0.005-0.005-0.007-0.007c-0.001-0.001-0.003-0.003-0.004-0.004         c-0.002-0.002-0.004-0.004-0.006-0.006c-0.001-0.001-0.003-0.003-0.004-0.004c-0.002-0.002-0.004-0.004-0.006-0.006         c-0.002-0.002-0.004-0.004-0.005-0.006c-0.002-0.002-0.003-0.004-0.005-0.005c-0.002-0.002-0.004-0.004-0.006-0.006         c-0.001-0.001-0.002-0.003-0.004-0.004c-0.002-0.002-0.004-0.004-0.006-0.007c-0.001-0.001-0.003-0.003-0.004-0.004         c-0.002-0.003-0.004-0.004-0.007-0.007c-0.001-0.001-0.002-0.002-0.003-0.003c-0.002-0.002-0.005-0.005-0.007-0.007         c-0.001-0.001-0.002-0.002-0.002-0.002c-0.003-0.003-0.006-0.006-0.009-0.01c-0.001-0.001-0.001-0.001-0.001-0.001         c-0.003-0.003-0.006-0.006-0.008-0.008c0,0-0.001-0.001-0.002-0.002c-0.004-0.004-0.007-0.007-0.01-0.011         c0,0-0.001-0.001-0.001-0.001c-0.003-0.003-0.005-0.005-0.008-0.008c0,0-0.001-0.001-0.001-0.001         c-0.007-0.007-0.013-0.013-0.02-0.02c0,0-0.001-0.001-0.001-0.001c-0.006-0.006-0.013-0.013-0.02-0.02l-0.002-0.002         C27.34,4.713,27.334,4.707,27.328,4.7c-0.001-0.001-0.002-0.002-0.002-0.003c-0.002-0.002-0.005-0.005-0.007-0.007         c-0.002-0.002-0.003-0.003-0.005-0.005c-0.002-0.002-0.004-0.004-0.006-0.006c-0.001-0.001-0.002-0.002-0.003-0.003         C27.301,4.674,27.3,4.672,27.297,4.67c-0.002-0.002-0.003-0.003-0.005-0.005c-0.002-0.002-0.004-0.004-0.006-0.006         c-0.001-0.001-0.002-0.002-0.004-0.004c-0.002-0.002-0.004-0.004-0.006-0.006c-0.002-0.002-0.003-0.003-0.005-0.005         c-0.002-0.002-0.004-0.004-0.006-0.005c-0.001-0.001-0.003-0.003-0.004-0.004c-0.002-0.002-0.004-0.004-0.006-0.006         c-0.002-0.002-0.004-0.004-0.006-0.006c-0.001-0.001-0.003-0.003-0.004-0.004c-0.002-0.002-0.004-0.004-0.006-0.006         c-0.001-0.001-0.004-0.004-0.005-0.005c-0.002-0.002-0.004-0.004-0.006-0.006c-0.001-0.001-0.002-0.002-0.004-0.004         c-0.002-0.002-0.004-0.004-0.006-0.006c-0.001-0.001-0.003-0.003-0.004-0.004c-0.002-0.002-0.005-0.005-0.007-0.007         c-0.001-0.001-0.002-0.002-0.003-0.003c-0.002-0.002-0.005-0.005-0.007-0.007c-0.001-0.001-0.002-0.002-0.003-0.003         c-0.003-0.003-0.005-0.005-0.008-0.008c-0.001-0.001-0.001-0.001-0.003-0.002c-0.003-0.003-0.005-0.005-0.008-0.008         c-0.001-0.001-0.001-0.001-0.002-0.002c-0.003-0.003-0.006-0.006-0.009-0.009c0,0-0.002-0.002-0.002-0.002         c-0.003-0.003-0.006-0.006-0.009-0.009c-0.001-0.001-0.001-0.001-0.001-0.001c-0.004-0.004-0.007-0.007-0.01-0.01         c0,0-0.001-0.001-0.001-0.001c-0.003-0.003-0.006-0.006-0.009-0.009c0,0-0.001-0.001-0.001-0.001         c-0.003-0.003-0.007-0.006-0.01-0.01L27.12,4.496c-0.003-0.003-0.007-0.007-0.01-0.01l0,0         c-0.007-0.007-0.014-0.014-0.021-0.02l0,0C27.074,4.451,27.06,4.438,27.045,4.424L27.045,4.424z M25.597,3.196l-0.45,0.6         c0.242,0.181,0.478,0.37,0.708,0.565l0.485-0.572c-0.238-0.201-0.481-0.396-0.731-0.584l0,0         C25.605,3.202,25.601,3.199,25.597,3.196L25.597,3.196z M24.013,2.148l-0.376,0.649c0.261,0.152,0.518,0.311,0.769,0.477         l0.414-0.625c-0.023-0.016-0.047-0.031-0.07-0.046c0,0,0,0-0.001,0c-0.005-0.003-0.008-0.005-0.013-0.008         c-0.001,0-0.001-0.001-0.001-0.001c-0.002-0.001-0.002-0.002-0.004-0.002c-0.001-0.001-0.002-0.001-0.003-0.002         c-0.001-0.001-0.001-0.001-0.002-0.001c-0.001-0.001-0.003-0.002-0.004-0.003c0,0-0.001-0.001-0.001-0.001         C24.489,2.432,24.253,2.287,24.013,2.148L24.013,2.148z M22.317,1.295L22.02,1.984c0.278,0.119,0.551,0.247,0.82,0.382         l0.337-0.67C22.895,1.554,22.608,1.421,22.317,1.295L22.317,1.295z M20.531,0.65L20.319,1.37         c0.29,0.086,0.577,0.18,0.86,0.282l0.255-0.705c-0.008-0.003-0.016-0.006-0.024-0.009l0,0         c-0.008-0.003-0.015-0.005-0.023-0.008l0,0c-0.002-0.001-0.004-0.001-0.005-0.002c0,0,0,0,0,0         c-0.002-0.001-0.003-0.001-0.005-0.002c0,0-0.001,0-0.001,0c-0.002-0.001-0.004-0.001-0.005-0.002l-0.001,0         c-0.005-0.002-0.01-0.003-0.015-0.005c-0.001,0-0.002-0.001-0.002-0.001c-0.001-0.001-0.002-0.001-0.004-0.001         c-0.001,0-0.002-0.001-0.002-0.001c-0.002-0.001-0.003-0.001-0.004-0.001c-0.001,0-0.002-0.001-0.003-0.001         c-0.001,0-0.002-0.001-0.003-0.001C21.333,0.91,21.332,0.91,21.33,0.909c0,0-0.001,0-0.001,0         c-0.002-0.001-0.005-0.002-0.007-0.002c-0.001,0-0.002-0.001-0.003-0.001c-0.001,0-0.003-0.001-0.004-0.001         c-0.001,0-0.001,0-0.002-0.001c-0.001,0-0.003-0.001-0.004-0.001c-0.001,0-0.002-0.001-0.003-0.001         C21.305,0.901,21.304,0.9,21.302,0.9c-0.001,0-0.001,0-0.002-0.001c-0.002-0.001-0.004-0.001-0.006-0.002l-0.001,0         c-0.002-0.001-0.004-0.001-0.006-0.002c-0.001,0-0.001,0-0.002-0.001c-0.002-0.001-0.003-0.001-0.005-0.002         c-0.001,0-0.001,0-0.002-0.001c-0.002-0.001-0.003-0.001-0.005-0.002c0,0-0.001,0-0.002-0.001         c-0.002-0.001-0.003-0.001-0.005-0.002c-0.001,0-0.001,0-0.002-0.001c-0.002-0.001-0.004-0.002-0.007-0.002l0,0         c-0.002-0.001-0.004-0.001-0.006-0.002l-0.002-0.001c-0.002-0.001-0.003-0.001-0.005-0.002c0,0-0.001,0-0.001-0.001         c-0.002-0.001-0.003-0.001-0.005-0.002c0,0-0.001,0-0.002-0.001c-0.007-0.002-0.013-0.005-0.02-0.007c0,0,0,0-0.001,0         c-0.002-0.001-0.004-0.001-0.006-0.002c-0.001,0-0.001,0-0.002-0.001c-0.002-0.001-0.004-0.001-0.005-0.002         c0,0-0.001,0-0.001,0c-0.007-0.002-0.014-0.005-0.021-0.007c0,0,0,0-0.001,0c-0.002-0.001-0.004-0.001-0.006-0.002l-0.001,0         c-0.002-0.001-0.004-0.001-0.006-0.002l0,0c-0.005-0.002-0.009-0.003-0.014-0.005l0,0c-0.002-0.001-0.004-0.001-0.006-0.002         c0,0,0,0-0.001,0c-0.002-0.001-0.004-0.001-0.006-0.002c0,0-0.001,0-0.001,0c-0.007-0.002-0.014-0.005-0.021-0.007l0,0         c-0.002-0.001-0.004-0.001-0.006-0.002l-0.001,0c-0.002-0.001-0.004-0.001-0.006-0.002c0,0,0,0-0.001,0         C21.102,0.831,21.1,0.83,21.098,0.829c0,0,0,0-0.001,0c-0.002-0.001-0.005-0.002-0.007-0.002l0,0         c-0.002-0.001-0.004-0.001-0.007-0.002c0,0-0.001,0-0.001,0c-0.002-0.001-0.004-0.001-0.005-0.002         c-0.001,0-0.001,0-0.002-0.001c-0.002-0.001-0.003-0.001-0.005-0.002c0,0-0.002-0.001-0.002-0.001         c-0.003-0.001-0.005-0.002-0.007-0.002l0,0c-0.002-0.001-0.005-0.002-0.007-0.002c0,0-0.001,0-0.001,0         c-0.002-0.001-0.004-0.001-0.006-0.002c0,0-0.001,0-0.002-0.001c-0.002-0.001-0.003-0.001-0.005-0.002         c0,0-0.001,0-0.002-0.001c-0.002-0.001-0.003-0.001-0.005-0.002c0,0-0.001,0-0.001,0c-0.002-0.001-0.004-0.001-0.006-0.002         c0,0-0.001,0-0.001,0c-0.002-0.001-0.004-0.001-0.006-0.002c-0.001,0-0.002-0.001-0.003-0.001         c-0.001,0-0.002-0.001-0.004-0.001c-0.001,0-0.002-0.001-0.003-0.001c-0.001,0-0.002-0.001-0.003-0.001         c-0.001,0-0.002-0.001-0.003-0.001c-0.001,0-0.002-0.001-0.003-0.001c-0.001,0-0.002-0.001-0.003-0.001         c-0.001,0-0.003-0.001-0.004-0.001c-0.001,0-0.004-0.001-0.005-0.002c-0.001,0-0.002-0.001-0.003-0.001         c-0.001,0-0.003-0.001-0.004-0.001c-0.001,0-0.002-0.001-0.002-0.001c0,0-0.003-0.001-0.004-0.001         c-0.001,0-0.002-0.001-0.003-0.001c-0.001,0-0.003-0.001-0.004-0.001c-0.001,0-0.002-0.001-0.002-0.001         c-0.002-0.001-0.003-0.001-0.005-0.002l-0.001,0c-0.003-0.001-0.006-0.002-0.009-0.003c-0.001,0-0.001,0-0.001,0         c-0.002-0.001-0.003-0.001-0.004-0.001c-0.001,0-0.002-0.001-0.003-0.001c-0.001,0-0.003-0.001-0.004-0.001         c-0.001,0-0.002,0-0.002-0.001c-0.001,0-0.003-0.001-0.004-0.001l-0.001,0c-0.005-0.002-0.011-0.004-0.016-0.005l-0.001,0         c-0.001,0-0.003-0.001-0.005-0.002L20.91,0.767c-0.002-0.001-0.003-0.001-0.005-0.002c0,0-0.001,0-0.001,0         c-0.002-0.001-0.004-0.001-0.005-0.002c0,0,0,0,0,0C20.776,0.725,20.654,0.687,20.531,0.65L20.531,0.65z M18.68,0.224         l-0.125,0.74c0.299,0.05,0.595,0.11,0.888,0.177l0.169-0.731C19.305,0.338,18.994,0.276,18.68,0.224L18.68,0.224z          M16.792,0.019l-0.037,0.749c0.303,0.015,0.605,0.038,0.903,0.071l0.081-0.746C17.426,0.06,17.111,0.035,16.792,0.019         L16.792,0.019z" fill="#E21B1B"/></g></g></g></g></g></g><g><g><path d="M24.514,12.295c0,0-0.169-1.278-0.69-1.841c-0.661-0.738-1.401-0.742-1.741-0.784c-2.432-0.188-6.079-0.188-6.079-0.188     h-0.008c0,0-3.647,0-6.079,0.188c-0.339,0.042-1.079,0.046-1.741,0.784c-0.52,0.563-0.69,1.841-0.69,1.841     s-0.174,1.5-0.174,2.999V16.7c0,1.501,0.174,3,0.174,3s0.169,1.278,0.69,1.839c0.662,0.738,1.529,0.715,1.916,0.792     C11.482,22.474,16,22.518,16,22.518s3.651-0.006,6.083-0.193c0.339-0.044,1.08-0.048,1.741-0.785     c0.52-0.562,0.69-1.839,0.69-1.839s0.174-1.5,0.174-3v-1.406C24.688,13.795,24.514,12.295,24.514,12.295z M13.83,19.259v-6.518     L19.262,16L13.83,19.259z"/></g></g></g></svg>